<?xml version="1.0" encoding="utf-8"?>
<!-- Generator: Adobe Illustrator 27.3.1, SVG Export Plug-In . SVG Version: 6.00 Build 0)  -->
<svg version="1.1" id="Layer_1" xmlns="http://www.w3.org/2000/svg" xmlns:xlink="http://www.w3.org/1999/xlink" x="0px" y="0px"
	 viewBox="0 0 1200 588.2" style="enable-background:new 0 0 1200 588.2;" xml:space="preserve">
<style type="text/css">
	.st0{fill:#F1F2F2;}
	.st1{fill:#7FA3B5;}
</style>
<rect x="17.5" y="165.6" class="st0" width="169.1" height="49.4"/>
<rect x="222" y="165.6" class="st0" width="132.9" height="49.4"/>
<rect x="391.2" y="165.6" class="st0" width="55.7" height="125.8"/>
<rect x="572.4" y="165.6" class="st0" width="180.7" height="49.4"/>
<rect x="17.5" y="235.7" class="st0" width="55.7" height="209.7"/>
<polygon class="st0" points="391.2,389.6 446.9,445.3 221.9,445.3 221.9,389.6 "/>
<polygon class="st0" points="537.1,165.6 537.1,445.3 446.9,445.3 446.9,389.6 481.5,389.6 481.5,369 446.9,369 391.2,313.3 
	481.5,313.3 481.5,165.6 "/>
<rect x="635" y="235.7" class="st0" width="55.7" height="248"/>
<polygon class="st0" points="861.2,165.6 861.2,221.4 842.8,221.4 842.8,426.1 861.2,426.1 861.2,481.9 787,481.9 787,165.6 "/>
<polygon class="st0" points="955.8,165.6 955.8,481.9 881.7,481.9 881.7,426.1 900.1,426.1 900.1,221.4 881.7,221.4 881.7,165.6 "/>
<path class="st0" d="M133.6,299.4h53v-63.7h-55.7V264H93.6c0,0,0,49.4,0,64.4c32.7,18.3,36.7,61.3,36.7,61.3l56.2-0.1v-37.2
	L133.6,299.4z"/>
<path class="st0" d="M1185.3,370.5v52.4H1132c0,0-14.6-61.9-68-97.7c0-13.2,0-61.3,0-61.3h38.9V215H989.6v-49.3h169.1v133.8h-53
	L1185.3,370.5z"/>
<polygon class="st1" points="1127.4,33.1 1127.4,134 1102.8,134 1102.8,57.8 73.2,57.8 73.2,134 48.5,134 48.5,33.1 "/>
<polygon class="st1" points="1045.4,83.2 1045.4,134 1020.7,134 1020.7,107.9 155.1,107.9 155.1,134 130.4,134 130.4,83.2 "/>
<polygon class="st1" points="423,524.6 423,549.3 130.4,549.3 130.4,421.3 155.1,421.3 155.1,524.6 "/>
<polygon class="st1" points="1045.4,521.3 1045.4,546 735.6,546 735.6,521.3 1003,521.3 1003,521.3 "/>
<rect x="989.6" y="235.7" class="st0" width="55.7" height="248"/>
<path class="st0" d="M1064.1,325.2L1064.1,325.2z"/>
<path class="st0" d="M1105.8,299.4L1105.8,299.4z"/>
<rect x="243" y="235.7" class="st0" width="74.8" height="55.6"/>
<rect x="243" y="313.4" class="st0" width="74.8" height="55.6"/>
<rect x="221.9" y="235.7" class="st1" width="21.1" height="55.6"/>
<rect x="221.9" y="313.4" class="st1" width="21.1" height="55.6"/>
<path class="st0" d="M1064.1,325.2L1064.1,325.2z"/>
<g>
	<path class="st0" d="M508.6,547.2v7.8H474v-42.7h9v35L508.6,547.2L508.6,547.2z"/>
	<path class="st0" d="M582.8,555h-9v-35.2H561v-7.7h34.6v7.7h-12.8V555L582.8,555z"/>
	<path class="st0" d="M674.1,512.2H648V555h26.1c5.8,0,10.5-4.7,10.5-10.5v-21.8C684.6,516.9,679.9,512.2,674.1,512.2z M675.7,543.2
		c0,1.6-1.3,2.9-2.9,2.9h-16v-24.9h16c1.6,0,2.9,1.3,2.9,2.9V543.2z"/>
	<circle class="st0" cx="541.2" cy="550.4" r="4.5"/>
	<circle class="st0" cx="615.4" cy="550.4" r="4.5"/>
</g>
</svg>
