<?xml version="1.0" encoding="utf-8"?>
<!-- Generator: Adobe Illustrator 28.5.0, SVG Export Plug-In . SVG Version: 9.03 Build 54727)  -->
<svg version="1.1" baseProfile="tiny" id="Layer_1" xmlns="http://www.w3.org/2000/svg" xmlns:xlink="http://www.w3.org/1999/xlink"
	 x="0px" y="0px" viewBox="0 0 1889.56 494" overflow="visible" xml:space="preserve">
<path fill="#104f8f" d="M1090.61,127.78v354.23h345.73V127.78H1090.61z M1336.38,379.64h-145.81V230.15h145.81V379.64z"/>
<path fill="#104f8f" d="M394.61,263.24c0-74.96-60.76-135.69-135.73-135.69H86.39l0,0H11.27v354.98h115.01v-83.56h44.93l51.64,83.56
	h135.97l-56.12-90.79C356.15,373.53,394.61,322.87,394.61,263.24z M258.88,295.48h-133.3v-64.5h133.3
	c17.8,0,32.24,14.44,32.24,32.26C291.12,281.05,276.68,295.48,258.88,295.48z"/>
<path fill="#104f8f" d="M1878.29,263.24c0-74.96-60.77-135.71-135.73-135.71h-172.49l0,0l-75.12,0.07v354.92h115.01v-83.56h44.93
	l51.93,83.56h135.97l-56.41-90.79C1839.83,373.53,1878.29,322.87,1878.29,263.24z M1742.56,295.48h-133.3v-64.5h133.3
	c17.8,0,32.24,14.44,32.24,32.26C1774.8,281.05,1760.36,295.48,1742.56,295.48z"/>
<polygon fill="#104f8f" points="540.04,233.46 540.04,305.79 613.67,305.79 613.67,378.1 681.62,378.1 681.62,482.54 424.29,482.54
	424.29,129.05 681.62,129.05 681.62,233.46 "/>
<rect id="I_00000091003536666654744150000001119628575048845468_" x="739.76" y="127.5" fill="#104f8f" width="117.13" height="354.26"/>
<polygon fill="#104f8f" points="1765.85,69.12 1032.39,69.22 1032.39,482.53 915.29,482.53 915.21,69.36 11.27,69.36 11.27,11.46
	1701.17,11.46 "/>
</svg>
